<?xml version="1.0" encoding="utf-8"?>
<!-- Generator: Adobe Illustrator 17.1.0, SVG Export Plug-In . SVG Version: 6.00 Build 0)  -->
<!DOCTYPE svg PUBLIC "-//W3C//DTD SVG 1.1//EN" "http://www.w3.org/Graphics/SVG/1.1/DTD/svg11.dtd">
<svg version="1.1" id="Layer_1" xmlns="http://www.w3.org/2000/svg" xmlns:xlink="http://www.w3.org/1999/xlink" x="0px" y="0px"
	 viewBox="650 50 400 1080" xml:space="preserve">
<pattern  x="494" y="996" width="8" height="8" patternUnits="userSpaceOnUse" id="Dots" viewBox="0 -8 8 8" overflow="visible">
	<g>
		<polygon fill="none" points="0,-8 8,-8 8,0 0,0 		"/>
		<image overflow="visible" width="8" height="8" xlink:href="bg.png"  transform="matrix(1 0 0 1 0 -8)">
		</image>
	</g>
</pattern>
<title>Me</title>
<g id="layer1">
	<path id="path2689" stroke="#cdd4d9" vector-effect="non-scaling-stroke" fill="url(#Dots)" d="M948.5,1101.8c-6-2.1-7.4-2.3-13.9-2c-4.5,0.2-7.6,0-8.2-0.5c-0.5-0.5-1.2-2.7-1.4-5.1
		c-0.9-8.3-1.7-13.3-2.4-14.1c-0.4-0.5-0.7-4.8-0.7-10.2v-9.4h-2.4c-3.9,0-4.7-2.1-5.1-13.6c-0.3-8-0.7-11.1-2.4-17.1
		c-2.5-8.6-2.6-12.2-0.7-16.9c0.8-1.9,1.6-4.9,1.9-6.5c0.4-3,0.3-3.2-4.9-9.2l-5.4-6.1l0.4-12.7c0.2-7,0.7-14.8,1-17.3
		c0.4-3.1,0.3-6.5-0.2-10.1c-0.7-4.5-1.3-6-3.4-8.6c-1.4-1.7-2.6-3.2-2.6-3.3c-0.1-0.2-0.6-5.2-2.7-26.1c-0.8-7.9-1.6-15.5-1.8-16.9
		c-0.2-1.4-0.7-6.8-1.1-12c-0.6-9.1-0.8-9.7-3.4-14.6c-3.8-7-3.3-4.7-5.3-27.7c-0.6-6.6-2.4-19.4-4.2-28.8
		c-3.5-18.8-4.4-24.8-7.8-53.7c-1.8-15.5-3-22.9-5.5-33c-3.5-14.4-11-48.6-11-50.3c0-2.1-1.2-3.4-2.2-2.5c-1.2,1-0.4,32.9,1.2,52
		c3,35,3.8,45.9,4.5,61c1.3,28.2,2.2,43.2,2.9,46.4c0.4,1.7,2.2,9.3,4.1,16.9c2.6,10.2,3.7,16.7,4.6,25.1c0.6,6.2,2.3,19.5,3.7,29.5
		c2.4,17.5,2.5,18.9,2.2,32.9l-0.4,14.6l2.8,9.6l2.8,9.6l-0.3,11.9c-0.3,10.3-0.5,12.3-1.8,15c-0.8,1.7-1.4,3.8-1.2,4.6
		c0.2,0.8,0.8,3.8,1.4,6.7c1,4.6,1,7.5,0.4,23.4c-0.4,10-0.5,19-0.3,20c0.4,1.5,0,2.3-2.1,4.2l-2.5,2.4l-1.1,14.7
		c-0.8,11.4-1.4,15.5-2.5,18.3l-1.4,3.6l-9.1-0.3c-8.1-0.2-9.2-0.1-9.5,1c-0.2,0.7-1.5,2.4-2.8,3.6l-2.4,2.3h-18.5
		c-10.2,0-22.8-0.2-28.1-0.5l-9.7-0.5l-1.3-2.4c-1.1-2-1.3-3.2-0.9-7.4c0.7-7.7,3.3-12.6,9.9-18.6c6.1-5.6,15.7-16.2,16.9-18.7
		c0.5-1,0.6-3.7,0.4-7c-0.4-4.8-0.6-5.5-2-5.9c-4.6-1.3-5.7-16.7-2.7-39l1.1-8.2l-2.8-5.2c-1.5-2.9-4.3-9.9-6.2-15.6l-3.4-10.4
		l0.2-12.7l0.2-12.7l-3.6-13.8c-3.5-13.1-3.6-14.2-3.7-23.4c-0.1-7.2,0.2-10.6,1.1-13.8c2-7,1.7-10.1-1.9-16l-3.1-5.2l-1.8-14.6
		c-1-8-2.5-19.4-3.2-25.3c-0.8-5.9-2-17-2.8-24.6c-0.8-7.6-2.2-18.5-3.2-24.1c-2.6-14.7-8.7-42.1-10.2-45.3
		c-0.7-1.5-2.7-10.5-4.6-20c-3.2-16.4-6.6-33.1-8.1-39.3c-0.6-2.3-1-2.9-2.4-2.9c-1,0-2.3,0.8-3.1,1.7c-0.7,0.9-2.1,2.7-3,3.9
		c-1.3,1.7-2.3,2.2-5,2.3c-2.6,0.2-3.8,0.7-5.3,2.3c-6.2,6.7-7.8,7.8-12.9,8.1c-3.2,0.2-6.4-0.1-9.4-1c-4.1-1.2-4.9-1.8-9.5-7.2
		c-7.9-9.3-7.6-8.2-7.6-24.9c0-13.5-0.1-14.5-1.4-15.7c-1.4-1.3-1.4-2.4-1.6-75.3c-0.2-84.1,0-88.2,5.9-150.4
		c0.8-8.2,2-23.3,2.7-33.4c0.7-10.1,1.8-23.4,2.4-29.5c0.6-6.1,1.2-13.7,1.4-16.9c2.6-37.5,3.3-41.9,7.1-47.7
		c2.9-4.3,17.8-18.9,24-23.4c3.2-2.3,10.9-7.6,17.2-11.7c17.1-11.3,21.4-14.5,27-20.4l5.1-5.4l-0.6-8.4l-0.6-8.4l-3.5-3.5
		c-4.3-4.3-6.3-7.9-6.8-12.4c-0.5-4-1.2-6.1-4.3-13.7c-4.6-11-5.9-18.1-6.5-34.9c-0.8-22.1,0.5-29.2,7.3-38.3
		c1.6-2.2,3.2-4.9,3.4-5.9c0.8-3.6,3.1-6.6,9.6-13c7.7-7.5,11.3-9.4,20.9-11.1c6.5-1.1,8-1.1,17.2-0.1c13.5,1.6,16.4,2.6,20.3,7.1
		c1.7,2,4,4.3,5,5c1,0.8,4.7,5.6,8.3,10.7c3.5,5.1,6.7,9.6,7,9.8c1.5,1.1,4.1,5.8,4.1,7.4c0,1,0.5,2.9,1.2,4.3
		c0.6,1.4,1.9,6.6,2.8,11.6c1.6,8.9,1.6,9.3,0.5,15.2c-1.3,7.2-5.3,20.4-7,23.2c-0.8,1.4-1.3,4.3-1.6,9.8c-0.4,7.7-0.4,7.9-3,11
		c-4,4.9-4.9,6.7-4.9,10c0,2.7,0.4,3.6,3,6.2c8.8,9.2,14.3,12.1,41.9,22.3c25.9,9.5,53.5,20.7,56.4,22.8c4.1,3,6.5,8,7.8,16
		c2.7,16.8,4.5,23.6,14.1,54.8c15.4,49.8,19.7,64.9,20.6,71.9c0.4,3.5,1.4,15.8,2.2,27.4c0.8,11.6,1.6,22.3,1.8,23.8
		c0.6,4.4-1,40.1-2.5,53.7c-0.7,7-1.9,18-2.5,24.6c-2.8,29.6-9.5,83.2-10.5,84.2c-0.2,0.2-1.1,0.8-2,1.3c-0.9,0.5-1.5,1.3-1.4,1.7
		c0.3,1.6-1.2,15.3-2,17.7c-0.5,1.7-1.7,3.1-3.8,4.4c-3.1,2-9.5,8.9-9.5,10.3c0,0.4-1.1,2.1-2.4,3.7c-1.7,2.1-4.3,3.8-8.8,5.9
		l-6.3,3l0,13.5c0,42.2,4.3,104.4,9.8,141.7c3.4,22.8,3.6,23.7,6.2,29c2.5,5.1,7,19.7,10.5,34.6c2.8,11.7,3.7,29.8,3.9,74.5
		c0.1,35,0.3,42.9,1.4,50.6c0.7,5,1.8,17.2,2.4,27.2l1.2,18l-3,1.5c-2.8,1.4-3,1.7-3,4.5c0,2.8,0.5,3.6,6.5,10.1
		c5.3,5.8,7.3,8.6,10.5,15.2c4,8,6,15.3,5,18.5c-0.6,2-4.9,4.4-11.8,6.5c-5.6,1.7-8.2,1.9-20.8,2.2l-14.4,0.3L948.5,1101.8z"/>
</g>
</svg>
